<?xml version="1.0" encoding="UTF-8"?>
<svg xmlns="http://www.w3.org/2000/svg" xmlns:xlink="http://www.w3.org/1999/xlink" width="810pt" height="809.999993pt" viewBox="0 0 810 809.999993" version="1.2">
<defs>
<clipPath id="clip1">
  <path d="M 278 155 L 532.285156 155 L 532.285156 655.992188 L 278 655.992188 Z M 278 155 "/>
</clipPath>
</defs>
<g id="surface1">
<g clip-path="url(#clip1)" clip-rule="nonzero">
<path style=" stroke:none;fill-rule:nonzero;fill:rgb(0%,0%,0%);fill-opacity:1;" d="M 530.980469 410.933594 C 531.140625 410.621094 531.320312 410.320312 531.453125 410 C 531.59375 409.648438 531.683594 409.285156 531.789062 408.925781 C 531.882812 408.597656 532 408.277344 532.0625 407.941406 C 532.132812 407.582031 532.148438 407.222656 532.179688 406.859375 C 532.214844 406.511719 532.265625 406.167969 532.265625 405.820312 C 532.265625 405.46875 532.214844 405.125 532.179688 404.777344 C 532.148438 404.414062 532.128906 404.054688 532.0625 403.695312 C 531.996094 403.359375 531.882812 403.039062 531.789062 402.710938 C 531.683594 402.351562 531.59375 401.988281 531.453125 401.640625 C 531.320312 401.316406 531.140625 401.015625 530.980469 400.703125 C 530.804688 400.371094 530.652344 400.03125 530.441406 399.714844 C 530.238281 399.40625 529.984375 399.132812 529.75 398.839844 C 529.542969 398.589844 529.378906 398.316406 529.148438 398.082031 L 297.621094 159.304688 C 293.351562 154.902344 286.339844 154.800781 281.949219 159.074219 C 277.5625 163.351562 277.457031 170.382812 281.722656 174.78125 L 505.746094 405.816406 L 281.722656 636.855469 C 277.457031 641.253906 277.5625 648.28125 281.949219 652.558594 C 284.105469 654.652344 286.890625 655.699219 289.671875 655.699219 C 292.5625 655.699219 295.445312 654.574219 297.621094 652.332031 L 529.148438 413.554688 C 529.375 413.320312 529.542969 413.046875 529.746094 412.796875 C 529.984375 412.507812 530.238281 412.230469 530.441406 411.921875 C 530.652344 411.601562 530.804688 411.265625 530.980469 410.933594 Z M 530.980469 410.933594 "/>
</g>
</g>
</svg>
